<svg width="139" height="32" viewBox="0 0 139 32" fill="none" xmlns="http://www.w3.org/2000/svg">
<rect width="32" height="32" rx="4" fill="#00594F"/>
<path d="M24 8H9L14.7674 11.0482L9.75463 24H18.2585L24 8Z" fill="#BFFF55"/>
<path d="M40.9545 11.196V8.54545H54.8807V11.196H49.4858V26H46.3494V11.196H40.9545ZM61.326 26.2557C60.0135 26.2557 58.88 25.983 57.9254 25.4375C56.9766 24.8864 56.2464 24.108 55.7351 23.1023C55.2237 22.0909 54.968 20.9006 54.968 19.5312C54.968 18.1847 55.2237 17.0028 55.7351 15.9858C56.2521 14.9631 56.9737 14.1676 57.8999 13.5994C58.826 13.0256 59.9141 12.7386 61.1641 12.7386C61.9709 12.7386 62.7322 12.8693 63.4482 13.1307C64.1697 13.3864 64.8061 13.7841 65.3572 14.3239C65.9141 14.8636 66.3516 15.5511 66.6697 16.3864C66.9879 17.2159 67.147 18.2045 67.147 19.3523V20.2983H56.4169V18.2188H64.1896C64.1839 17.6278 64.0561 17.1023 63.8061 16.642C63.5561 16.1761 63.2067 15.8097 62.7578 15.5426C62.3146 15.2756 61.7976 15.142 61.2067 15.142C60.576 15.142 60.022 15.2955 59.5447 15.6023C59.0675 15.9034 58.6953 16.3011 58.4283 16.7955C58.1669 17.2841 58.0334 17.821 58.0277 18.4062V20.2216C58.0277 20.983 58.1669 21.6364 58.4453 22.1818C58.7237 22.7216 59.1129 23.1364 59.6129 23.4261C60.1129 23.7102 60.6982 23.8523 61.3686 23.8523C61.8175 23.8523 62.2237 23.7898 62.5874 23.6648C62.951 23.5341 63.2663 23.3438 63.5334 23.0938C63.8004 22.8438 64.0021 22.5341 64.1385 22.1648L67.0192 22.4886C66.8374 23.25 66.4908 23.9148 65.9794 24.483C65.4737 25.0455 64.826 25.483 64.0362 25.7955C63.2464 26.1023 62.343 26.2557 61.326 26.2557ZM72.8423 18.3295V26H69.7571V12.9091H72.706V15.1335H72.8594C73.1605 14.4006 73.6406 13.8182 74.2997 13.3864C74.9645 12.9545 75.7855 12.7386 76.7628 12.7386C77.6662 12.7386 78.4531 12.9318 79.1236 13.3182C79.7997 13.7045 80.3224 14.2642 80.6918 14.9972C81.0668 15.7301 81.2514 16.6193 81.2457 17.6648V26H78.1605V18.142C78.1605 17.267 77.9332 16.5824 77.4787 16.0881C77.0298 15.5937 76.4077 15.3466 75.6122 15.3466C75.0724 15.3466 74.5923 15.4659 74.1719 15.7045C73.7571 15.9375 73.4304 16.2756 73.1918 16.7188C72.9588 17.1619 72.8423 17.6989 72.8423 18.3295ZM89.2401 26.2301C88.2116 26.2301 87.2912 25.9659 86.4787 25.4375C85.6662 24.9091 85.0241 24.142 84.5526 23.1364C84.081 22.1307 83.8452 20.9091 83.8452 19.4716C83.8452 18.017 84.0838 16.7898 84.5611 15.7898C85.044 14.7841 85.6946 14.0256 86.5128 13.5142C87.331 12.9972 88.2429 12.7386 89.2486 12.7386C90.0156 12.7386 90.6463 12.8693 91.1406 13.1307C91.6349 13.3864 92.027 13.696 92.3168 14.0597C92.6065 14.4176 92.831 14.7557 92.9901 15.0739H93.1179V8.54545H96.2116V26H93.1776V23.9375H92.9901C92.831 24.2557 92.6009 24.5937 92.2997 24.9517C91.9986 25.304 91.6009 25.6051 91.1065 25.8551C90.6122 26.1051 89.9901 26.2301 89.2401 26.2301ZM90.1009 23.6989C90.7543 23.6989 91.3111 23.5227 91.7713 23.1705C92.2315 22.8125 92.581 22.3153 92.8196 21.679C93.0582 21.0426 93.1776 20.3011 93.1776 19.4545C93.1776 18.608 93.0582 17.8722 92.8196 17.2472C92.5866 16.6222 92.2401 16.1364 91.7798 15.7898C91.3253 15.4432 90.7656 15.2699 90.1009 15.2699C89.4134 15.2699 88.8395 15.4489 88.3793 15.8068C87.919 16.1648 87.5724 16.6591 87.3395 17.2898C87.1065 17.9205 86.9901 18.642 86.9901 19.4545C86.9901 20.2727 87.1065 21.0028 87.3395 21.6449C87.5781 22.2812 87.9276 22.7841 88.3878 23.1534C88.8537 23.517 89.4247 23.6989 90.1009 23.6989ZM105.295 26.2557C103.982 26.2557 102.849 25.983 101.894 25.4375C100.945 24.8864 100.215 24.108 99.7038 23.1023C99.1925 22.0909 98.9368 20.9006 98.9368 19.5312C98.9368 18.1847 99.1925 17.0028 99.7038 15.9858C100.221 14.9631 100.942 14.1676 101.869 13.5994C102.795 13.0256 103.883 12.7386 105.133 12.7386C105.94 12.7386 106.701 12.8693 107.417 13.1307C108.138 13.3864 108.775 13.7841 109.326 14.3239C109.883 14.8636 110.32 15.5511 110.638 16.3864C110.957 17.2159 111.116 18.2045 111.116 19.3523V20.2983H100.386V18.2188H108.158C108.153 17.6278 108.025 17.1023 107.775 16.642C107.525 16.1761 107.175 15.8097 106.727 15.5426C106.283 15.2756 105.766 15.142 105.175 15.142C104.545 15.142 103.991 15.2955 103.513 15.6023C103.036 15.9034 102.664 16.3011 102.397 16.7955C102.136 17.2841 102.002 17.821 101.996 18.4062V20.2216C101.996 20.983 102.136 21.6364 102.414 22.1818C102.692 22.7216 103.082 23.1364 103.582 23.4261C104.082 23.7102 104.667 23.8523 105.337 23.8523C105.786 23.8523 106.192 23.7898 106.556 23.6648C106.92 23.5341 107.235 23.3438 107.502 23.0938C107.769 22.8438 107.971 22.5341 108.107 22.1648L110.988 22.4886C110.806 23.25 110.46 23.9148 109.948 24.483C109.442 25.0455 108.795 25.483 108.005 25.7955C107.215 26.1023 106.312 26.2557 105.295 26.2557ZM113.726 26V12.9091H116.717V15.0909H116.854C117.092 14.3352 117.501 13.7528 118.081 13.3438C118.666 12.929 119.334 12.7216 120.084 12.7216C120.254 12.7216 120.445 12.7301 120.655 12.7472C120.871 12.7585 121.05 12.7784 121.192 12.8068V15.6449C121.061 15.5994 120.854 15.5597 120.57 15.5256C120.291 15.4858 120.021 15.4659 119.76 15.4659C119.197 15.4659 118.692 15.5881 118.243 15.8324C117.8 16.071 117.45 16.4034 117.195 16.8295C116.939 17.2557 116.811 17.7472 116.811 18.304V26H113.726Z" fill="#171717"/>
</svg>
